<svg id="svg3157" xmlns="http://www.w3.org/2000/svg" viewBox="0 0 281.52 290.81"><defs><style>.cls-1,.cls-2,.cls-3{fill:silver;stroke:#fff;}.cls-1{stroke-width:0.4px;}.cls-2{stroke-width:0.08px;}.cls-3{stroke-width:0.1px;}</style></defs><title>map1</title><path id="es-4" class="cls-1" d="M157.2,482.4a11.7,11.7,0,0,1,2.5,1.1c0.2,0.3.4,1.6,1.1,1.5,1-.1,1.9-0.8,3-0.8s3.4,2.5,4.6,2.1c0.5-.1,0-1.1.4-1.4,1.9-1.3,4.1-.1,6.1.4h0.5a2.21,2.21,0,0,1,.9,2c-0.2,1-1.9.8-2.5,1.4s1.5,3.4.2,5.5c-0.6,1.4-6,3.5-7.5,4.1s-3.5,1-4.5,1.9c-0.7.5-1.9,2.4-3,2.6-4.2,1.3-11.8.4-15.2,3.1-0.9.8-2.6,1.4-2.4,2.5,0.4,0.9,2.2.8,2.1,1.6,0,0.4-3.9,1.3-4.1,1.4-1.5,1.1-2,3.3-3.2,4.5-3.5,3.6-8.1,7.2-10.3,11.8-1,1.9.4,7.9,1.5,9.5,0.4,0.5,5,3.1,3.9,3.9-0.9.8-3,1-3.9,1.6a2.34,2.34,0,0,1-.5,1c-0.2.3-.6-0.1-0.9-0.1a10.6,10.6,0,0,0-3,1c-0.4.4-.1,1.3-0.6,1.6s-1-.3-1.2,0c-0.5.6-.1,1.6-0.5,2.1s-1.5,0-1.9.6c-0.5.8,0.2,1.9-.1,2.6-1,2.5-3.2-.4-3.4,3.6,0,1,2,1.4,1.7,2.3s-1.7.8-2.7,0.6a9.72,9.72,0,0,1-1.9-.8c-2.6-.8-5.7.5-8,2-3.9,2.5-3.9,7.4-7.9,9.4-1.5.9-2-3.3-5.7-2.3-0.7.3-1.1,1.3-2,1.5-1.1.4-3.7-1.8-4.9-1.9-1.5-.4-3.1.5-4.7,0.3-0.9-.3-1.4-1-2.2-1.3-1.6-.6-9-1.8-10.3-1.5-1.5.4-2.2,2.3-3.6,2.9-2,.8-4.5-1.5-7.2-0.1-2.2,1.1-2,2.1-3.1,3.8-0.1.1-.9-0.6-1.4-0.3a9.47,9.47,0,0,1-2.4,2c-0.4.1-.4-0.8-0.7-1-0.5-.4-1.2-0.5-1.6-0.9-0.5-.6-0.6-1.5-1.2-2-0.4-.4-1.1,0-1.5-0.4-0.9-.9-2.1-5-2.4-6.3,0-.1,1.9,1.8,1.6.6,0-.4-0.7,0-0.9-0.3s0.5-.5.4-0.8c-0.4-2.1-2.2.4-2.1-3.3,0,0,4.9-2.3,3.7-2.5-1-.3-1.6,1.9-2.6,1.6-0.9-.1-0.5-1.6-0.9-2.4a10.13,10.13,0,0,0-1.4-2L36,548.7v-0.3a0.45,0.45,0,0,1-.5.4c-0.7.1-1.1-.9-1.7-1.3a13.86,13.86,0,0,0-4.4-.6c0.2-5.3-1-6.2,3.1-9.8,0.7-.6.6-2,1.4-2.4,0.2-.1,6.4-0.3,4.9-2.8-0.4-.6-1.6.4-2.2,0s-0.5-1.5-.7-2.3a6.15,6.15,0,0,0-.7-2.3c-0.1-.3-0.9,0-0.9-0.3,0.4-.9,1.2-1.5,1.6-2.4,0.7-1.5-1.4-.4.7-2.1,1.9-1.5,4.4-1.3,4.6-4.5,0-.3-2.4-1.9-2.9-2.9-0.7-1.6.1-4.3,0.1-4.5s-2.1-4-2.1-4.1c-0.1-.3.4,0.1,0.6,0.1,1.1,0.4,1.9.5,3,.8,2.9,0.8,3.5,1,5-1.9,1.7-3.5-.1-2.3-0.5-4.9-0.4-2.4,3.5-1.3,3.6-3,0.1-1.3-1.2-.1-0.5-1.6,0.1-.3.6-0.3,0.7-0.6a8.51,8.51,0,0,0,.5-2.6c0.1-1,.9-2,0.7-3l-1.1-3c0.4-.4,1.2.4,1.7,0.1l2.6-2.8c1.9-1,5.4-1.1,6.4-3.9,0.7-2.5-2.5-2.3-3.4-2.4-0.6-.1.5-4.9,0-5.2-2.4-1.3-2.9-.1-5.7-1.3-0.5-.3-0.4-1.5-1.5-0.8-0.2.3,0.2,0.9,0,1.1-1.7,1.5-3.6-.3-4.1-0.4-0.5-.3-1.1.4-1.5,0.1-0.2-.1.7-0.4,0.5-0.6a1.07,1.07,0,0,0-1.2-.6c-0.7-.1-1.6.1-2.4,0a1.49,1.49,0,0,1,.1-0.6,0.78,0.78,0,0,0,0-.5c-0.6.1-2.1,1.9-3.2,1.1-3-2.1,2.9-2.6,1.4-4.1-0.2-.3-0.7,0-1-0.3-0.1-.3.5-0.8,0.2-0.9a11.82,11.82,0,0,0-7.2,1.3c0.2-1-1.1-1.9-1.1-2.9-0.1-.4.6,0.5,0.9,0.3s-0.2-.6-0.1-0.9c0.2-1.1,2.1-.8,3-1.5,0.2-.1.7-0.8,0.4-0.6-0.7.1-1.5,0.9-2.2,1s-0.9-1-.4-1.5c0.7-.5,2.4-0.1,2.6-1s-1.6.3-2.2,0a2.31,2.31,0,0,1-1-1.4c-0.1-1.3,1.1.4,1.2,0.3a4.71,4.71,0,0,1,.4-1.6c0.4-.6,1.5-0.8,1.6-1.5,0.6-6.2-4.4.9-5.4-5.2-0.7-4.1,2.7-2.9,2.9-3.5,0.1-.4-1,0-1.4-0.3-0.1-.3.4-0.5,0.5-0.5,1.4-.3,2.1.1,3.1,0,3.2-.3,7.6-3,10.6-4.3,1.1-.5,2.4-2.1,3.5-1.4,0.5,0.4-.7,1.9-0.1,2,1,0.1,1.6-1.6,2.6-1.6,3.4,0,3.1,5.9,6.2,6.7,0.6,0.1.9-1.3,1.5-1.1,3.5,0.9,1.6,1,5.1,1.5,0.9,0.1,2.5-.3,3.2-0.1s1.1,1,1.9,1c1,0,1.9-1.3,2.9-1s1,1.8,1.7,2.4,2.2-.1,3,0.6c0.2,0.3-.5.6-0.2,0.8,0.2,0.4,1-.5,1.4-0.3,3.1,2.1,11.2,6.2,15.3,4.9a9.22,9.22,0,0,1,.5-0.8,7.52,7.52,0,0,1,1.5,0c1,0.1,3.6-.1,4.4,1.4a1.06,1.06,0,0,1-.2.5c1,0.3,3.7,2.9,4.7,2.9,0.4,0-.2-0.9,0-1.1a1.56,1.56,0,0,1,1.2-.6c3.6-.5,1.2-0.1,2.7,1.6,0.5,0.5,1.5-.3,2,0.1,0.7,0.4,1.1,1.3,1.7,1.6,1.6,0.9,5.1.8,7.5,0.1a26.88,26.88,0,0,0,2.1,2c0.2,0.1.1-.5,0.2-0.5a2.59,2.59,0,0,1,1.7.9c1.1,1.3-2.5,2.8-.9,3.5,0.7,0.3,1.5-1.1,1.7-.9a4,4,0,0,0,0,1.1c1.7,1.6,4.5,1,6.1,2.3,0.1,0.1,1.4,3,1.5,3,1.6,1.3,3.2-1,5,.5,0.9,0.8.2,2.4,1.9,2.4,0.7,0.1,1.2-.6,2-0.5s1.1,1,1.9,1.1c0.4,0,.4-0.8.7-0.8,1.2-.1,2.4.9,3.7,1,0,0-.6-2.9.9-2.6,2.1,0.4,3.4,1.9,4.7,3.1a1.63,1.63,0,0,0,.7,0,2.86,2.86,0,0,1,1.7.5c0.6,0.5.2,1.6,0.9,2v0.1c-0.3,2.5-.6,4.2,3.3,3.1h0Z" transform="translate(-27.4 -281.1)"/><path id="va-5" class="cls-1" d="M287.5,497.4a0.25,0.25,0,0,0-.2.3,0.34,0.34,0,0,0,.2.3,0.25,0.25,0,0,0,.2-0.3C287.8,497.5,287.7,497.4,287.5,497.4Z" transform="translate(-27.4 -281.1)"/><path id="de-2" class="cls-1" d="M242.3,281.3h0l-0.3.3a8.46,8.46,0,0,0-1.1,3.7c0,0.6.3,1.1,0.3,0.7a8.58,8.58,0,0,1,.3-1.7c0.1-.3.3-0.2,0.6,0s0.4,0,1-.2,0.7-.5.5-0.5a3.64,3.64,0,0,1-1.5,0c-0.6-.1-0.1-0.9,0-1.5a0.69,0.69,0,0,1,.6-0.6,0.43,0.43,0,0,1-.4-0.2h0Zm2.1,2.4a6.92,6.92,0,0,0,.5,2.8,25.76,25.76,0,0,0,1.9,2.4c-0.3.9-.1,0.9-0.6,1.2s-0.4,1.1.4,0.8a1.67,1.67,0,0,0,1.1-.9,1.87,1.87,0,0,0,.3.4c-0.4,1.7-2.3,1-3.7,1.6,0.1,0.1,1.1.2,0.6,0.8-0.1.3-1.1-.2-1,0.1,0.1,0.8.1,1.4,2.2,1,0.3,0.4.3,0.4,0.5,0.3a3,3,0,0,0,.7-0.8h0.2c-0.9,1.1-1.5,1.2-1.4,2.9a0.9,0.9,0,0,0,.5.1c0.4-.1.5,0.2,0.8,0.8s0.2,0.9-.4.7a0.93,0.93,0,0,0-.9,0,5.27,5.27,0,0,0,.5,1.5c-0.2,1.8,2.6,1,2.9,1,2.3,0.2,1.7,2.3,3.1,2.9,0.4,0.9-.2,1.9,3.3,2.8-3.4-.5-3.2-1.4-3.8-2.4-1.2-1-1.1-2.3-2-2.7-1.1-.5-2.5.5-3.7,0.3a2.54,2.54,0,0,1-1.5-.3c-0.4-.1-0.4-1-0.6-0.9-2.6,2.2-1.8,4.1-1.2,5.8-1.7-.4-2.4-2.2-3-0.8-0.8,2,1.1.2,0.4,2.6-0.1.4-.7,0.7-1.3-0.3-0.2,0-.8-0.2-0.7-0.6s1.1-.7.6-1.5c-0.6-1.1-1-1.4-.9-2a1.69,1.69,0,0,0-.6-0.3,9,9,0,0,0-4.3.6,5.7,5.7,0,0,0-2.9,0,4.1,4.1,0,0,0-1.4,1.5c0.4,0.4.7,0.6,0.5,0.6s-0.5.1-.4,0.3-0.1.1-.5-0.2c-0.6,1.1-1,2.4-.5,3.1a10.58,10.58,0,0,0,2,.3,1,1,0,0,1,.2,1.3c0.2,2.1-1.9,6.2-2.1,7-0.4,1,.5,3-0.5,3s-1.6-.4-2.5-0.4c-0.2,0-.6,0-0.6.3s0.5,0.8.4,1.1-0.6-.1-0.7.3c-1.1,1.9,3.5,1.1,3.6,2.9,0.5,3.1-1.9,3.6-3.9,5-1.1.8,1.6,0.9,1.2,1.8s-3.7,2-4.6,1.9-1.4-.9-2.1-1.1c-0.2-.1.2,0.6,0,0.8-0.7.3-1.5-.1-2.1,0.3a1.07,1.07,0,0,0,0,.8,1,1,0,0,0-.2.9c0.7,1.4,3.5,3.4,2.4,6.2-0.4.9-1.2,1.5-1.6,2.4s1.1,0.3,1,.9l-2.4,2.1c-0.2,0,.1-0.6-0.3-0.4-1.1,1.8,1.9.6,1.5,3.2-0.1.5-1,.5-1.1,1s1.6,3,1.7,3.1c0.2,0.3,1-.3,1,0.1s-0.9,1-.7,1.5c0.2,0.8,1.4.6,1.7,1.3,1.7,2.9-4,2.6-2.9,7.3,0.6,2.6,3.6,2.9,3.9,3.3,1.7,2.1-3.2,3.1-1.9,5.6,0.2,0.4,1,0,1.4.4,1,0.6,1.6,3.5,2.9,4.8,1.5,1.6-1-3.5,2.7-.1,0.2,0.3-.2.8-0.1,1.1s4.2-1.3,4.9-.8c0.4,0.4.1,1.1,0.5,1.5s8,1.3,7.5,2.1c-1.4,2.4-3.9,3.9-4.9,5.9a23.21,23.21,0,0,0-.6,4.4l-1.7,2.9a4.33,4.33,0,0,0-.4,1.9c0,0.4.5,0.4,0.5,0.6-0.1,1.8-1.4,3.4-1.2,5.1,0,4.4.5,0.6,1.6,1.5,0.1,0.1-.7.3-0.6,0.5,0.4,0.8,6.1-.6,6.5-0.6,2.5-.1.2,2.3,3.4,0.6a2.72,2.72,0,0,1,0-.9c0.4-.3,1.7-0.4,1.2-0.5-0.7-.1-1.5.1-2.2,0-0.4-.1,1.7-3.5,3.6-1.6,0.2,0.3-.4.8-0.2,1.1a0.76,0.76,0,0,0,.9.3,2,2,0,0,0,0-.8c0.5,0.3.5,1.1,1,1.4l4.2-.3c1.4,0.4,2.2,1.8,3.6,2.3,2,0.6,1.9-1.6,2.5-1.1,0.2,0.3,0,.9.2,1.1,0.5,0.1,1-.5,1.4-0.3a15.38,15.38,0,0,1,1.2,1.3c0.6,0.5-.2,1,0,1.4a0.75,0.75,0,0,0,.7.4,5.74,5.74,0,0,1,.7-0.4c0.4,0.5-1,1.3-.5,1.8,0.9,0.9,3.2-2,3.2-2.5,0.2-.9-0.5-3,0.2-2.5a0.77,0.77,0,0,1-.2.3c1,1.1,4.5-.9,5,0.8,0.1,0.3-.6.1-0.5,0.4a2.62,2.62,0,0,0,.9.5c0.2,0.3,0,.9.2,1.1,0.5,0.3,4.7-.9,4.9-1,0.2-.3-0.2-0.9.1-1,0.5-.4,1.1.3,1.6-0.1s0.2-1.1.7-1.4c1.6-.6,4.5.1,6.2-0.4,0.4-.1-1-2.1.5-2.3,0.2,0-.2.8,0,0.9,0.6,0.3,1.4-.4,2.1-0.1,0.4,0.1.2,1,.7,1.1,1,0.1,1.9-.8,2.9-0.8,1.9,0.1-1.2,2.1,2.7,3.3a0.77,0.77,0,0,0,.5-0.6c1.1-4.1-.2-2.3-1.6-3.5-0.6-.5,1.1-2,1-2.1s-3-4.3-3-4.3c0.1-2,5.4-3.3,6.5-4.1,1.2-1,.5-2.4.7-3.6a0.62,0.62,0,0,1,.6-0.4c2.6,0.6,3.4,1.4,3.5-2s-5.3-5.1-7.3-6.5c-0.9-.8-1-2.1-1.9-3s-2.1,0-2.9-.6c-0.2-.2.3-0.4,0.2-0.6a1.3,1.3,0,0,0-1.3-.8c-1.3-3.4-1.2-4.2-3-5.4,0.2-1.4,1.9-.8,1.5-2.5a1.43,1.43,0,0,0-1.2-1,8.76,8.76,0,0,1-2.3-2.4v-0.8a1.11,1.11,0,0,0-.7-0.9,0.76,0.76,0,0,1-.4-0.5,0.53,0.53,0,0,0,.3-0.2c0.3-.2-0.4-0.6,0-0.8s0.9,0.4,1.2.9c0.5,0.4.5,2.1,0.7,1.6,1-2,1.5-4.4,4.6-4.9,0.4,0,1.7,1.1,2.2.5,0.4-.4,0-1.1.4-1.4s1.1,0.3,1.5-.1c0.7-.5.9-2,2-2.3,0.4-.1.6,0.8,0.9,0.5,0.6-.5.4-1.5,1-2s2.1,0.1,3.1-.4c0.2-.1,0-0.8.2-0.9,1.5-.9,3.6-1,5.1-2.3,0.5-.4-1.7-0.9-1.5-1.5s0.4-1.2.7-1.1a8.11,8.11,0,0,1,.8.6,2.57,2.57,0,0,0,.5-0.2,0.22,0.22,0,0,1,.2.2h0.3c1,0.2,1,.3.9,0.8s-0.1.6,0.1,0.7a0.76,0.76,0,0,0,.4-0.2c0.5-.3.3,0.2,0,0.8l0.1,0.1c-0.1.6,0.4,0.7,0.8,0.8a0.66,0.66,0,0,0,.7.2c0.7-.1.7-1.9,1.7-4.9,0.4-1.2.9-1.9,0.1-3.6-0.5-1-.1-1.8-1.2-2.6-0.5-.5-1.6-0.3-2.1-1-0.4-.5,1.1-0.8.2-1.9a4.45,4.45,0,0,1-1-1.8c-0.1-.6-0.8-0.5-0.5-1.1,1.7-1.8.8-1.9,1.2-3.8-0.1-.3-0.6-0.1-0.7-0.5-0.1-.6.4-1.5,0-2.1-0.2-.8-1.2-0.6-1.5-1.6a1.5,1.5,0,0,1,.2-1.9,2.7,2.7,0,0,0,.2-2c-0.2-.9-1.6-1.7-2.7-2.6s-2.2-.6-2.5-1.4c-0.2-.6.5-0.3,0.3-1.7-0.1-.6.8-1.1,1.3-1.6a5.84,5.84,0,0,0,.9-2.3,3.61,3.61,0,0,0,.3-1.8c-0.2-1.3-1.7-4.9-2-6.9-0.2,0,.2-0.8-0.2-0.9s-1.1.5-1.9,0.1a11.29,11.29,0,0,1-1.9-1.3,1,1,0,0,0,.3-0.1c0.3,0,.2-0.5.3-0.4s-0.2.3,0,.3a3.51,3.51,0,0,0,.8-0.5c0.3-.2.4,0.1,0.9,0a1.69,1.69,0,0,1,.8,0l-0.1-.6-0.1-.2,0.3-.2s0.1,0-.4-0.3a10.09,10.09,0,0,1-1.3-1.2c-0.9-.8-1-0.6-0.8-0.3a3.33,3.33,0,0,1,.6,1c0.1,0.4,0,.7-0.2.5a0.78,0.78,0,0,0-.4-0.3,0.43,0.43,0,0,0-.3-0.3c-0.3,0-.6.3-0.3,0.5a1.43,1.43,0,0,1,.1,1.3,0.78,0.78,0,0,1-.7.3c-0.3-.8,1.7-0.7-0.8-2.4-0.9-.6,2.1-0.8,1.2-1.1-1.1-1.8-1.7-1.7-1.5-1-1-.3-2.5.2-2.7,1a9.66,9.66,0,0,0-2.2-2.3c-0.4-.5-1.2-0.3-1.6-0.8-0.5-.8,0-2.5-0.9-2.5h-0.2v0.1a1.69,1.69,0,0,1-.6.3,0.81,0.81,0,0,0-.4.8c-0.1.4-.6,0.3-0.6,0.1s-0.1-.4-0.3-0.3a0.67,0.67,0,0,1-.7-0.3c-0.2-.3,0-0.2-0.2,0a6.53,6.53,0,0,1-.8.7c-0.4.3-.3-0.4-0.5-0.2s0,0.5-.3.6-0.2.3-.3,0.5a1.52,1.52,0,0,0-.6.4,0.52,0.52,0,0,0,.5.5c0.4,0.1-.2.1-0.6,0s-0.1-.2-0.2-0.5,0-.3.2-0.5,0.2-.1.2-0.5,0-.3.2-0.5a7.47,7.47,0,0,1,1.1-.2c0.5-.2.1-0.1,0.3-0.3a0.66,0.66,0,0,1,.6-0.1c0.3,0,.2-0.2.5-0.2a2.15,2.15,0,0,0,.8,0,3.4,3.4,0,0,1,1-.1,0.25,0.25,0,0,0,.2-0.3h-0.2c-1.6-.1-3.8-0.7-4-0.4-0.7.9-.9,2.3-1.6,3.1a13.6,13.6,0,0,0-1.8,1.7,19.11,19.11,0,0,1-2.6.9,19.17,19.17,0,0,1-2,.1c-1.1.6-1.5,3.8-2.1,4.1-1.4-1.8-1,.7-2.6-1.9-1,0-1.7,1.1-2.7,1-0.2-.2.3-0.8-1-0.8-0.5,0-.3-1.2.4-1.3,1-.2,1.6-1.2,2.5-1.9-0.1-1.8-.3-2.5.2-3.2a2.36,2.36,0,0,1-1.2.1c-0.6-.2-2,1.2-2.2,1.3-0.9-.3-3.5-2.3-4.3-2.1s-1.7,2.1-1.7,2.1a7.31,7.31,0,0,0,.5-2.4c-0.1-1.1-2.3.2-3.2,0-0.7-.9.9,0.3,1.6-1.4a2.33,2.33,0,0,0,0-2c-0.1-.3-0.7.3-0.9,0-0.2-.1.2-0.4,0.5-0.5,0,0,.2.1,0.2,0a1.17,1.17,0,0,0-.5-1.1,0.74,0.74,0,0,0-1,0,1.43,1.43,0,0,0-1.4-.8,2.29,2.29,0,0,1-1.2-.8c-0.5.1-.7,0.8-1.2,1.1-0.2.1-.2,0-0.1-0.4-1.6-.3-3.2-1.1-4.9-1.4,0.2-.4-1.3-0.3-2.1-0.4h0Zm-0.9,2.2c-0.7,0-1.7.4-1.2,0.9,0.8,0.4,1.1.5,1.5,0.1S244.3,285.8,243.5,285.9Zm46.3,0.6a2,2,0,0,0-1.5.5c-0.3.5-.4,0.9,0,0.5s0.8-.4.4,0.5-0.1.6,0.2,0.3a1.1,1.1,0,0,0,.5-0.5c0.1-.2.1,0,0.4,0.3a1.3,1.3,0,0,0,.7.5c0.3,0,.3-0.1.3,0.5s0.1,0.6-.2.7-0.4.1-.5-0.3,0.1-.3-0.1-0.5,0-.2-0.2,0-0.4.2-.2-0.4-0.1-.5-0.4-0.1-0.1.3-.1,0.5,0,0-.2-0.2a1.7,1.7,0,0,0-1,0c-0.3,0,0,.1,0,0.4s0.2,0.2.4,0.2,0.3,0,.2.2-0.1.2,0.1,0.2,0.4-.2.1,0.2-0.6.5-.8,0.7,0.1,0.3.3,0.3,0.2,0,.3.3,0.4,0.5-.1.5-0.8-.2-0.9.2a0.76,0.76,0,0,0,.3.8c1,0.9,1.2.9,1.5,0.8s0.1-.2.2,0.1a0.63,0.63,0,0,0,.8.4c0.4-.2-0.4-0.7.1-1.2a2.3,2.3,0,0,1,1.9-.9c0.6,0.1.8,0.5,0.5,0.8s0.5,0.7.6,0,0.4-.6-0.2-1.2-1.1-.2-1.4-1.3,0.7-.5.8-1.4-0.4-.9-1.3-0.8-1.4.1-1.5-.5,0-.4.3-0.6,0.3-.6-0.3-0.5h0ZM245,289.2a2.3,2.3,0,0,0-.9.3c-0.3.2-.2,0.2,0.1,0.6s0.6,0.1.8-.5c0.1-.3.1-0.4,0-0.4h0Zm22.8,0.4a1.14,1.14,0,0,0-.7,1.4,0.53,0.53,0,0,0,.3.2c0.6-.2.6-0.3,0.5,0.1s0.2,0.9.6,0.5a1,1,0,0,1,1-.2c0.4,0.1.7,0.3,0.3-.5s-0.7-1.5-1.7-1.6a0.37,0.37,0,0,1-.3.1h0Zm20.1,0.1a1.13,1.13,0,0,0-.6.6c-0.2.4,0.3,0.1,0.9-.2,0.1-.1.2-0.1-0.1-0.3-0.1,0-.1-0.1-0.2-0.1h0Zm-15.8,8.2h-0.2c-0.4.1-1.4,0.3-1.1,0.8s0.5,0.5.5,0.1,0.2-.5.1-0.2,0,1.1.3-.1a1.13,1.13,0,0,0,.4-0.6h0Zm-47.2,6.5c1.1-.3,1.8-0.2,1.3.1s-0.4.7-.8,0.6-0.8-.5-0.5-0.7h0Zm2.2-1.1c2-.1,2.8.1,1.4,0.1S226.3,303.5,227.1,303.3Zm3.4-.3c1-.1,1.4-0.4-0.1-0.4S229.7,303.1,230.5,303Zm1.6-.5c0.4,0.2.5,0.6,0.1,0.4S231.7,302.4,232.1,302.5Zm1.1-.3c1.1,0,1.4.3,0.6,0.3s-0.6,0-.7.2-0.6.1-.4-0.2S232.8,302.3,233.2,302.2Zm2.2,0c0.6-.1.8-0.2,0.2-0.2s-0.8-.1-0.8.1,0.3,0.1.6,0.1h0Z" transform="translate(-27.4 -281.1)"/><path id="ad-4" class="cls-1" d="M157.2,482.4c-5.6,1.6-2.5-3-2.2-3C158.2,479.1,158.5,480.8,157.2,482.4Z" transform="translate(-27.4 -281.1)"/><path id="fr-7" class="cls-1" d="M180.5,342.8a31.16,31.16,0,0,1-4.4.5c-1.1.1-5.2,0.4-5.7,1.9-0.2.6-1.2,6.7-1.2,7.5,0,0.4.6,0.4,0.6,0.6s-0.5-.3-0.7,0a1.48,1.48,0,0,0-.2,1.3,4.12,4.12,0,0,0,1,1.3c-0.8-.3-1.2-0.2-2,1.3a0.35,0.35,0,0,1-.4.4,16.68,16.68,0,0,1-2.4,1.6c-2.2,1.3-10.6,1.5-11.8,3.5-1.4,2.4-.9,3.4,0,3.9l0.7,0.1a5.36,5.36,0,0,0-1.8.6c-0.9.8-2.9,1.6-4.2,0.8a6.92,6.92,0,0,0-3.7-1.3c-1.3-.1-4.3-1.5-5-0.7s-0.6,0-.5-0.6-1.2-1.1-1.4-2,1.2-.9.8-2.1-2.2-.6-2.7-0.1-1.6-.1-2.6-0.5a11.94,11.94,0,0,0-2.7-.9c-0.5,0,.1.8,0.7,1.1a1.09,1.09,0,0,1,.2,1.7c-0.5.4,0.2,0.3,0.2,1.3s0.6,1,1.2,2.2,0.3,1.4,1.1,2-0.2.1-.2,1.8,0.7,0.7.2,2.5-0.7,3.5.5,3.9,1.3,0.9-.6.8-4,.7-3.5-0.7-0.1-1.5-1-1l-1.1.6a1.06,1.06,0,0,0-1.2.1c-0.4.5-1.2,0.7-.9-0.2s-0.2-1.3-1.7-.7a26.54,26.54,0,0,0-3.4,1.9l-1.5-1.4,0.1-1.2-1.3-1.3,0.4-.6s-1.6.6-1.1-.3,0.8-1.4.8-1.4a0.46,0.46,0,0,0-.7.2,1,1,0,0,1-.6.5s0.5-1-.3-0.8a5.22,5.22,0,0,0-1.2.6s0.2-1.1-.3-0.8-1.2,1.2-2.2.5-1-.3-1-0.3l-1,.3s-0.1,1,.5,1.1-0.7-.1-0.5.7-0.7-.3-2.2-0.7-0.6,1.3-.6,1.3-0.6.1-1.2-1.4-0.7-.2-2.2,0-1.8,1.1-2.3.3-3,.6-4.2.8-1.2,2-.9,2.8,1.4,0.9,2.6.5a18.43,18.43,0,0,1,3.1-.6s-2.4.5-2,1a2,2,0,0,0,1.7.2c-0.1.1-.1,0.2,0.3,0.4,0.8,0.5-.4.8-1.7,0.3s-1-1.2-1.8-.5,0.7,0.3.3,1.2,0.2,0.7.8,0.3,0.9,0.5,1.7.7,1.3,1.8-.6,1.3-3.9-.5-4.2.2,3.3,0.8,3.5,2.2,1,1.1.2,1.8,0.7,1.1,1.8,1,0.2-1.7,1-1,1.5,0.8,1.7.2,0.2,0.5,1.5,1.4,1.7,0.7,2.7,1.1,0.8,1.3,1.5,1.3,0.7-.4,1.3-0.8a1,1,0,0,0-.2,1.2,0.92,0.92,0,0,0,1.7-.4c0-.7,1.4-0.3.3,0.6s-0.4.2-.6,1.6,0.6,1.9.6,0.9,0.5,0,1.3-.5,0.7-.7,1.2-0.2,1.2-.3,1.7.3,0,1.3-1.2.8-0.5-.2-0.1.8,1.7-.5,2.8,0,1.5,0.6.9,1.3,1.4,0.6,0,.9-0.7,0-.8,1.1,0.3,0.9,1.3,1.3,1.1,0.7,1.9.1a2.19,2.19,0,0,1,3.3.2c1.4,1.3,1.4,1.8,2,1.8s-0.6.7-2.2-.8-2.4-1.4-2.7-.3,0.2,1.3-.9,1.2,0.5,0.2,1.3.8,1.6,1,.5,2-1.7,1.6-1.5,2.7,2,2.2,2.2,4.2a15.23,15.23,0,0,0,.2,1.8s3.7,1.6,3.5,2.5,1,0.3,1.5,1.2,0.4,1.3,1.2.4,1,0.4.5,1.1-0.7.3-1.1,1.1,0.3,0.1.6,0.8a8.4,8.4,0,0,1,.6,2.4c-0.1.5-1-.3-0.7,0.8s-0.7,1.3-.7,2v0.8a0.65,0.65,0,0,0-1.2.3c-0.4,1.2-.4.6,0.5,1.2s2,2.4,2.9,3.7h0c0.1,0.1.1,0.3,0.2,0.4,0.7,3.5,0,5.6,2,7.8l-0.2,1.2c-0.1-.2-0.2-0.3-0.3-0.5-0.9-.9-0.9-0.8-1-2.4a19.6,19.6,0,0,0-.8-4.4c-0.5-1.8-1.1-.8-1.5-1.6s0.3-2-.5-1.6-0.8.5-1.1,1.9-1.2,4.5-1.7,6.9-2,5.4-1.4,5.5,0.7-2.1,1.3-1.3,1.3,1.9.5,2-1.2-.3-1.5.3a6.06,6.06,0,0,1-.7,1.3s-3.2,10.5-4.6,14.1-1.4,1.3-1.6,2.3V462a4.87,4.87,0,0,1-1.2.1,4.25,4.25,0,0,1-1.7.5,26.88,26.88,0,0,0,2.1,2c0.2,0.1.1-.5,0.2-0.5a2.59,2.59,0,0,1,1.7.9c1.1,1.3-2.5,2.8-.9,3.5,0.7,0.3,1.5-1.1,1.7-.9a4,4,0,0,0,0,1.1c1.7,1.6,4.5,1,6.1,2.3,0.1,0.1,1.4,3.1,1.5,3.1,1.6,1.3,3.2-1,5,.5,0.9,0.8.2,2.4,1.9,2.4,0.7,0.1,1.2-.6,2-0.5s1.1,1,1.9,1.1c0.4,0,.4-0.8.7-0.8,1.2-.1,2.4.9,3.7,1,0,0-.6-2.9.9-2.6,2.1,0.4,3.4,1.9,4.7,3.1a1.63,1.63,0,0,0,.7,0,2.86,2.86,0,0,1,1.7.5c0.6,0.5.2,1.6,0.9,2v0.1a2.19,2.19,0,0,1,.7-1.1c3.2-.3,3.5,1.4,2.2,3a11.7,11.7,0,0,1,2.5,1.1c0.2,0.3.4,1.6,1.1,1.5,1-.1,1.9-0.8,3-0.8s3.4,2.5,4.6,2.1c0.5-.1,0-1.1.4-1.4,1.9-1.3,4.1-.1,6.1.4H175a5.21,5.21,0,0,1-1.7-2c-0.9-2.5.7-1.9,0.1-4.1-0.1-.4-1-0.3-1-0.6,0.1-1.4,1.7-2.1,2-3.4,0-.4-0.6-0.9-0.4-1.1,1.5-2.1,4-1.6,5.2-2.3,1.4-.8,3.4-3.3,4.7-4.1s2.5,0.9,3.5,1.4c0.4,0.3,4.7.8,4.9,1.3s-1.6,3.2,2.4,1.5c0.3-.1.3-0.3,0.1-0.5-0.5-.6-2.4-1.5-1.1-3,0.3-.4-0.1,2.2,1.1,3a1.45,1.45,0,0,0,.7.2,3.24,3.24,0,0,0,2.5-.9c0.4-.5-1-1.9-0.2-2.1s2.2,0.6,2.2,1.6-2.4.7-2.5,1.7c-0.1.8,1.4,0.5,2.1,0.5,0.5,0,1-.9,1.2-0.5,0.5,0.6-.1,1.9.5,2.5s1.6,0.5,2.5.8a4.74,4.74,0,0,1,1.2,0c1.7,0.9.9,1.5,0.9,1.8a0.85,0.85,0,0,0,.9.3,1.33,1.33,0,0,0,1.1-.1c0.2-.3-1.5-1,0.1-0.9,2.5,0.1,1.6,1.9,2.7,1.5s1.7-1.5,2.9-1.8c0.8-.1,1.8.3,2.5,0,0,0.2-.1.2,0.2,0.1a0.94,0.94,0,0,0,.5-1c0.1-.5.7-0.8,0.1-0.8s-1.1-.1-0.2-0.4,0.7-.6.8-1.2a3.09,3.09,0,0,0,.2-0.8h0.1a2.47,2.47,0,0,1,1.2.3c0.8,0.3,1-.4,1.4-1.2s-0.1-.8.8-1.1a0.6,0.6,0,0,1,.4-0.1h1c0.1,0,.1-0.1.1-0.2h0a0.64,0.64,0,0,0,0-.6v-0.1a1.79,1.79,0,0,1,.9-0.8c0.9-.5,1.1-0.6,1.4-0.5h0c0,0.1,0,.3.1,0.3s0.1-.1,0-0.3h0a0.6,0.6,0,0,0,.7,0v-0.2h-0.1c-0.4-.1-0.3-0.5.4-0.9a1.42,1.42,0,0,1,.4-0.2c0.3-.1.3,0.2,0.2,0.5h0.2a3.74,3.74,0,0,0,.7-0.6,1.42,1.42,0,0,0-.2-0.6c0.1-2.2,3.5-4.7,1.8-5.9-0.6-.4-1.5.1-2.2,0.3-0.7,0-1.6.4-2.4,0.1-1.4-.4-4.6-2.8-4.5-4.5,0-.3.6-0.3,0.6-0.5-0.1-.4-1.4-0.8-1-1.5a10.63,10.63,0,0,0,1.5-1.5c0.1-.1-0.2-0.4-0.1-0.6,0.1-.4,1.2.3,1.4-0.1a6.36,6.36,0,0,0-.5-2.8c-0.6-1-4.7-2.6-4.5-4.6,0-.6,1.1-0.6,1.7-0.8,0.4,0,.6.8,1,0.6,0.6-.1,4.6-3.4,4-4.5-0.4-.8-1.6-0.9-2-1.8-0.4-.5.1-1.4-0.1-1.9-1.7-3-5-1.5.7-4.9-0.5-.8-0.5-1.6-1.1-2.3-0.1-.3-0.6.5-0.7,0.3-0.1-.4.5-1,0.2-1.4-0.1-.4-0.9,0-1.1-0.3-0.7-1.3,1-1.1.9-1.9-0.1-.6-0.9-0.9-0.9-1.5-0.1-.4.9-1.1,0.4-1.3-1.6-.8-5.1-0.8-6.2,1a1.34,1.34,0,0,0-.1.9c0.1,0.3.7,0.5,0.6,0.8a3.63,3.63,0,0,1-4,1.8,2.25,2.25,0,0,0,.5-0.5c0-1.6,1.2-1,1.4-1.4,0.6-2-1-3.8.5-5.6,0.9-1.3,3.1-1.3,3.6-2.6,0.4-.8-0.4-1.9,0-2.8s2.2-.6,3-1.5,1.9-3.3,3-4.1c0.6-.5,1.2.9,1.4-0.9,0-.6-1.9.6-2,0s0.7-1.1,1.1-1.6c0,0,.2.1,0.2,0,0-.3-0.5-0.8-0.2-0.9,3.5-1,2,3.8,6.2-.6-0.1,0-.1-0.5-0.1-2.1-0.1-1.8,1.1-3.4,1.2-5.1,0-.3-0.5-0.3-0.5-0.6a3.28,3.28,0,0,1,.4-1.9l1.7-2.9a23.21,23.21,0,0,1,.6-4.4c1-2,3.5-3.5,4.9-5.9,0.5-.9-7-1.8-7.5-2.1s-0.1-1.1-.5-1.5c-0.6-.5-4.6,1.1-4.9.8-0.1-.4.4-0.9,0.1-1.1-3.7-3.4-1.2,1.8-2.7.1-1.2-1.3-1.9-4.1-2.9-4.8-0.4-.4-1.1,0-1.4-0.4a5.09,5.09,0,0,0-2.1-.6c-0.6,0-1.2.6-2,.6a2,2,0,0,1-.1-0.5c-0.5-.3-1-0.5-1.6-0.8a4.51,4.51,0,0,0-1.1-.3c-0.9-.1-1.7.8-2.5,0.4-0.6-.3-0.1-1.4-0.5-1.9-0.2-.4-0.9-0.1-1.2-0.4a2.36,2.36,0,0,1,.5-0.5,0.77,0.77,0,0,0-.5-0.6,4.87,4.87,0,0,0-.7.3c-0.5-.4-0.6-1.1-1.1-1.5-0.9-.4-2.1,0-2.6-0.8-0.5-.5.5-1.3,0.5-1.9s-0.9-.6-0.9-1.1a7.58,7.58,0,0,1,.6-1.6c0.1-.4.7-0.8,0.5-1-0.9-.8-1.6,1.5-2.5,2.3-1.7,1.6-5.9.6-5.5-.1s1-1,1-1.6c0-.4-1-0.4-0.9-0.9,0-.8,1-1.4,1-2.1-0.2-2.1-5.4-.9-5.6-1.9-0.1-.5.2-1.1,0.1-1.6-0.4-2-3.1,0-3.9-1.8-0.5-1,.2-3.9-1.4-4.5-0.7-.4-1.4,1.4-2.4,1.4-2.1-.4-2.2-5.2-2.5-7h0ZM92.4,373.3c-0.7.3-1.2,0.8-.6,0.8S93.2,374.1,92.4,373.3Zm17.7,16c-0.4,0-.5.5,0.2,0.8s1.3,0.1.3-.7a4.33,4.33,0,0,1-.5-0.1h0Zm2.2,4.9c-0.5.2-.5,1.2,1,2,1.9,1,.6-1.1-0.4-1.8a0.37,0.37,0,0,0-.3-0.1,0.77,0.77,0,0,0-.3-0.1h0Zm9.7,7.7s-0.9.9,0.1,1.2,1.4,0.8.9,0.2,0.6-1.1-1-1.4h0Zm-1.7,4.3-0.5,1,1.6,0.3Zm7.8,9.9c-0.8,0-1.4.7-.2,0.8s1.9,1.3,2.7,1.3-0.8-2.1-2.5-2.1h0Zm1.1,3.8c-0.6.6-.2,2.1,0.4,3.3s1.1-.1,1-1-0.6-1.3-1.4-2.3h0Z" transform="translate(-27.4 -281.1)"/><path id="nl-3" class="cls-1" d="M221.6,305.9h-0.5c-0.4,0-.9.1-1.2,0.1a1.07,1.07,0,0,0-.3.5c-0.1.2,0,.4,0.1,0.3a0.85,0.85,0,0,1,.3-0.3,7,7,0,0,0,1.2-.3c0.4-.1.7-0.2,0.6-0.3h-0.2Z" transform="translate(-27.4 -281.1)"/><path id="gg-9" class="cls-2" d="M128.2,359.5h-0.3c-0.6.1-.3,0.3,0.1,0.2s0.4-.2.2-0.2h0Zm-4.2,2.9h0c0,0.2,0,.2-0.2.2a2.51,2.51,0,0,0-.7.4c-0.2,0-.4,0-0.4.2s0,0.2-.2.2,0,0.3.6,0.4,0.8,0.1.9-.1a0.85,0.85,0,0,1,.2-0.6,0.48,0.48,0,0,0,.2-0.5c0-.2-0.2,0-0.2,0-0.1-.2-0.1-0.2-0.2-0.2h0Zm0.9,0.5c-0.1,0,0,.1,0,0.3s0.3,0,.1-0.2a0.1,0.1,0,0,0-.1-0.1h0Zm1,0.6v0.1c0,0.2-.4.6-0.2,0.5a0.38,0.38,0,0,0,.3-0.5l-0.1-.1h0Z" transform="translate(-27.4 -281.1)"/><path id="je-0" class="cls-2" d="M126.7,366.6a0.31,0.31,0,0,0,.1.2,0.6,0.6,0,0,1,0,.8c-0.2.1,0,.3,0.3,0.2s0.1,0.1.2,0.1,0.3,0.1.2-.1,0.1-.2.3-0.2,0.1,0.4.3,0.3a1.42,1.42,0,0,1,.4.2c0.3,0,.4.1,0.4-0.2s0.2-.1.1-0.3,0.1-.4-0.1-0.5-0.5,0-.5-0.3a0.62,0.62,0,0,0-.7-0.2,0.82,0.82,0,0,1-.7-0.1,0.37,0.37,0,0,1-.3.1h0Z" transform="translate(-27.4 -281.1)"/><path id="mc-6" class="cls-3" d="M227.1,467.1c0-.3,0-0.5-0.2-0.5a1.06,1.06,0,0,0-.5.2c-0.7.4-.7,0.8-0.4,0.9h0.1Z" transform="translate(-27.4 -281.1)"/></svg>